<svg width="202" height="221" viewBox="0 0 202 221" fill="none" xmlns="http://www.w3.org/2000/svg">
<mask id="mask0_2126_257" style="mask-type:luminance" maskUnits="userSpaceOnUse" x="0" y="0" width="202" height="221">
<path d="M0.380249 0.958344H201.38V220.958H0.380249V0.958344Z" fill="white"/>
</mask>
<g mask="url(#mask0_2126_257)">
<path fill-rule="evenodd" clip-rule="evenodd" d="M2.90629 220.885H5.31775V126.432L43.9427 108.068V220.885H70.8959V89.901L48.7761 100.422V8.88542L109.526 40.8385V88.6667L87.4011 103.818V220.885H114.354V91.2135L152.979 64.776V119.057L130.859 109.969V220.885H157.813V126.255L196.443 142.12V220.885H201.266V138.891L157.813 121.042V55.625L114.354 85.3594V37.9271L43.9427 0.890625V102.719L0.489624 123.385V220.885H2.90629ZM152.979 124.271V216.047H135.688V117.167L152.979 124.271ZM109.526 94.5208V216.047H92.2292V106.359L109.526 94.5208ZM48.7761 105.766L66.0677 97.5469V216.047H48.7761V105.766Z" fill="#004AAD"/>
</g>
</svg>
